<svg width="249" height="106" viewBox="0 0 249 106" fill="none" xmlns="http://www.w3.org/2000/svg">
<g clip-path="url(#clip0_169_262)">
<path fill-rule="evenodd" clip-rule="evenodd" d="M245.638 103.154C240.281 85.2008 211.125 98.8988 192.386 99.2082C177.347 99.4604 170.246 88.5944 178.336 77.7616L189.543 62.7595C194.36 56.3151 213.012 42.1649 211.459 46.3581C205.352 62.8928 249.963 60.8557 245.638 103.154Z" fill="#FF8C9A"/>
<path d="M242.905 103.958C239.904 93.8108 225.591 96.619 211.435 99.3843L210.379 99.5889V93.7632C222.91 91.3121 235.521 88.8514 242.933 94.1868C241.5 76.9858 229.763 69.5323 220.697 63.7828C216.458 61.0937 212.697 58.7091 210.379 55.9248V42.8075C212.166 42.4077 213.49 42.9788 214.202 44.7113C214.528 45.5543 214.516 46.4898 214.169 47.3243C212.501 51.8316 217.404 54.9396 223.779 58.9804C235.512 66.4196 251.258 76.4051 248.506 103.42C248.431 104.071 248.134 104.677 247.664 105.135C247.194 105.593 246.58 105.877 245.926 105.939C245.271 106 244.615 105.835 244.067 105.472C243.52 105.109 243.114 104.569 242.919 103.944L242.905 103.958ZM210.379 99.5889C204.167 100.807 197.954 101.969 192.449 102.054C186.417 102.154 181.457 100.627 177.964 98.0278C176.203 96.7446 174.749 95.0902 173.705 93.1826C172.689 91.2891 172.143 89.1803 172.114 87.0332C172.057 83.5302 173.299 79.7606 176.057 76.0863L187.263 61.0841C190.561 56.672 199.856 48.9282 205.533 45.2444C206.641 44.4961 207.807 43.8387 209.022 43.2787C209.459 43.0787 209.913 42.9194 210.379 42.8027V55.9295C209.023 54.3945 208.186 52.4726 207.99 50.437C202.68 54.0067 194.699 60.6701 191.875 64.4539L180.644 79.4846C178.676 82.1214 177.777 84.6868 177.82 86.9666C177.837 88.2097 178.154 89.4306 178.742 90.5267C179.386 91.6907 180.281 92.6984 181.361 93.4777C183.899 95.3529 187.65 96.4667 192.353 96.3905C197.61 96.3001 203.951 95.0578 210.331 93.8061H210.374L210.379 99.5889Z" fill="#FCF0E2"/>
<path fill-rule="evenodd" clip-rule="evenodd" d="M178.351 77.7616L205.873 40.9322L223.827 51.5079L204.157 84.6344C197.199 96.3334 182.723 71.9121 178.351 77.7616Z" fill="#FF8C9A"/>
<path d="M201.911 41.4558L203.583 39.2235C204.005 38.6593 204.622 38.2701 205.314 38.1305C206.006 37.9908 206.726 38.1106 207.335 38.4668L225.285 49.0234C225.938 49.409 226.411 50.037 226.6 50.7695C226.789 51.5021 226.679 52.2795 226.293 52.931L206.623 86.0528C205.189 88.4325 203.617 89.8033 201.911 90.4268V82.8163L219.908 52.5122L206.632 44.678L201.911 50.9987V41.4558ZM176.057 76.0672L201.911 41.4558V50.9987L183.913 75.0915C184.884 75.6434 185.818 76.257 186.709 76.9287C187.717 77.676 188.75 78.5136 189.82 79.3751C191.669 80.9347 193.624 82.366 195.67 83.6587C198.059 85.0533 200.272 85.5387 201.691 83.1494L201.911 82.7829V90.4316C199.091 91.4596 195.947 90.4316 192.759 88.5753C190.466 87.1332 188.278 85.5315 186.212 83.7825C185.199 82.9638 184.214 82.169 183.302 81.4931C181.758 80.3508 180.678 79.4084 180.649 79.4513L176.057 76.0672Z" fill="#FCF0E2"/>
<path fill-rule="evenodd" clip-rule="evenodd" d="M3.16367 103.154C8.51609 85.196 37.6773 98.8988 56.3917 99.2082C71.431 99.4604 78.5326 88.5944 70.4418 77.7616L59.259 62.7595C54.4371 56.3151 35.7848 42.1649 37.3427 46.3581C43.4598 62.8928 -1.15173 60.8557 3.16367 103.154Z" fill="#FF8C9A"/>
<path d="M38.4324 93.7632H38.4754C44.8553 95.015 51.2113 96.2572 56.4586 96.3477C61.1611 96.4238 64.9125 95.3101 67.4502 93.4348C68.5309 92.6556 69.4253 91.6479 70.069 90.4839C70.658 89.3877 70.9743 88.1669 70.9914 86.9238C71.0296 84.6439 70.1407 82.0785 68.167 79.4417L56.9604 64.4396C54.1408 60.632 46.1551 53.9686 40.8457 50.4228C40.649 52.4583 39.8128 54.3802 38.4563 55.9153V42.8075C38.9224 42.9241 39.3768 43.0835 39.8135 43.2834C41.0197 43.8347 42.1799 44.4809 43.283 45.2158C48.9556 48.8997 58.2555 56.6387 61.5482 61.0556L72.7548 76.0577C75.5123 79.7511 76.7596 83.5207 76.6975 87.0047C76.6711 89.1521 76.1252 91.2615 75.1061 93.154C74.068 95.0788 72.6136 96.75 70.848 98.0468C67.3546 100.636 62.394 102.173 56.3678 102.073C50.8337 101.983 44.6593 100.826 38.4324 99.608V93.7632ZM5.87812 94.1868C13.2903 88.8514 25.9067 91.3311 38.4324 93.7632V99.5794L37.3762 99.3747C23.2209 96.619 8.93187 93.8108 5.90679 103.958C5.71337 104.586 5.30838 105.129 4.76011 105.494C4.21185 105.86 3.55384 106.026 2.89703 105.964C2.24022 105.903 1.6248 105.617 1.15452 105.157C0.684247 104.696 0.387887 104.088 0.315412 103.435C-2.43727 76.4194 13.3094 66.4339 25.0465 59.0185C31.4169 54.9824 36.3201 51.8792 34.6522 47.3624C34.3035 46.5246 34.2932 45.585 34.6235 44.7398C35.326 42.9931 36.645 42.4219 38.4467 42.836V55.9629C36.1289 58.7472 32.3726 61.1317 28.1289 63.8209C19.0489 69.5419 7.29747 76.9953 5.87812 94.1964V94.1868Z" fill="#FCF0E2"/>
<path fill-rule="evenodd" clip-rule="evenodd" d="M70.4609 77.7616L42.9389 40.9322L24.9844 51.4936L44.6546 84.6201C51.6127 96.3334 66.0882 71.9121 70.4609 77.7616Z" fill="#FF8C9A"/>
<path d="M64.903 75.0915L46.9054 50.9986V41.4557L72.7548 76.0672L68.1622 79.4845C68.1336 79.4417 67.0535 80.3841 65.5099 81.5264C64.5971 82.2022 63.5983 82.9971 62.5995 83.8157C60.5339 85.5637 58.3477 87.1652 56.0571 88.6086C52.8648 90.4886 49.725 91.4929 46.9054 90.4648V82.8162L47.1205 83.1827C48.5542 85.5625 50.7716 85.0865 53.142 83.692C55.1888 82.3981 57.1447 80.967 58.9962 79.4084C60.0619 78.5469 61.0989 77.7092 62.1025 76.962C62.9944 76.2788 63.9299 75.654 64.903 75.0915ZM46.9054 50.9986L42.1838 44.6779L28.9079 52.4979L46.9054 82.8162V90.4315C45.1946 89.808 43.6032 88.4372 42.1934 86.0575L22.5232 52.9453C22.3299 52.6221 22.2027 52.264 22.1488 51.8917C22.0949 51.5193 22.1153 51.1401 22.209 50.7756C22.3027 50.4112 22.4678 50.0688 22.6948 49.7681C22.9217 49.4674 23.2061 49.2143 23.5316 49.0234L41.4813 38.4667C42.09 38.1119 42.8086 37.9929 43.4998 38.1325C44.191 38.2721 44.8063 38.6605 45.228 39.2235L46.9007 41.4557L46.9054 50.9986Z" fill="#FCF0E2"/>
<path fill-rule="evenodd" clip-rule="evenodd" d="M44.6546 84.6201L18.074 39.8803C7.46473 21.9892 64.4777 2.18467 124.406 2.85577C184.334 2.18467 241.337 21.9892 230.737 39.8565L204.157 84.6201C214.03 65.0774 158.279 52.8644 123.799 52.8549C89.3187 52.8454 31.3643 62.2359 44.6546 84.6201Z" fill="#FF8C9A"/>
<path d="M124.406 4.72555e-05C153.079 -0.323602 181.113 3.99807 201.567 10.5615C211.798 13.8456 220.205 17.7008 225.939 21.8845C232.319 26.5203 235.583 31.6701 234.771 37.0294C234.532 38.5442 234.001 39.9987 233.208 41.313L206.628 86.0528C206.228 86.6591 205.612 87.0914 204.905 87.262C204.197 87.4327 203.451 87.3288 202.817 86.9715C202.184 86.6142 201.71 86.0303 201.493 85.3382C201.276 84.6461 201.331 83.8976 201.648 83.2446C202.017 82.519 202.268 81.74 202.394 80.9362C202.871 77.6046 200.372 74.3776 195.951 71.4171C190.867 67.9998 183.45 65.0631 174.924 62.6738C159.087 58.2332 139.694 55.7677 124.391 55.6963V49.9849C140.162 50.0515 160.171 52.5931 176.482 57.1623C185.562 59.7086 193.543 62.8737 199.149 66.6814C202.675 69.0612 205.313 71.6742 206.795 74.5537L228.267 38.3811C228.68 37.7056 228.959 36.9575 229.089 36.1774C229.567 33.1313 227.148 29.8044 222.565 26.4727C217.337 22.665 209.485 19.0811 199.808 15.9779C179.866 9.58103 152.496 5.36406 124.42 5.68295H124.396L124.406 4.72555e-05ZM42.2077 86.048L15.6224 41.3082C14.8292 39.994 14.2986 38.5394 14.0597 37.0246C13.2329 31.6892 16.497 26.5393 22.8769 21.894C28.6116 17.7246 37.013 13.8551 47.2495 10.571C67.6987 4.01711 95.732 -0.304564 124.406 4.72555e-05V5.71151H124.382C96.3246 5.39262 68.946 9.60958 48.9938 16.0064C39.3165 19.1049 31.4646 22.6984 26.2365 26.4965C21.6534 29.8282 19.2544 33.1599 19.7132 36.2012C19.8452 36.983 20.1293 37.7316 20.5495 38.4049L41.056 72.9402C42.3224 70.2796 44.5351 67.8808 47.5028 65.7247C52.4538 62.1408 59.5936 59.2279 67.8277 56.9386C84.9411 52.179 107.096 50.0039 123.808 50.0134H124.415V55.7249H123.808C107.526 55.7249 85.9686 57.8334 69.3283 62.4501C61.682 64.5729 55.1874 67.2097 50.8433 70.3462C47.0966 73.0639 45.1086 76.1339 45.6677 79.5274C45.9173 80.8258 46.4032 82.0679 47.1014 83.1923L42.2077 86.048Z" fill="#FCF0E2"/>
<path d="M85.6147 37.168C85.1947 37.168 84.8657 37.056 84.6277 36.832C84.3897 36.594 84.2707 36.258 84.2707 35.824V34.186H79.0837C78.6497 34.186 78.2997 34.095 78.0337 33.913C77.7817 33.731 77.6557 33.444 77.6557 33.052C77.6557 32.828 77.7117 32.583 77.8237 32.317C77.9497 32.051 78.1667 31.701 78.4747 31.267L84.2287 22.93C84.4247 22.636 84.6417 22.412 84.8797 22.258C85.1177 22.104 85.3907 22.027 85.6987 22.027C86.0627 22.027 86.3637 22.139 86.6017 22.363C86.8397 22.573 86.9587 22.909 86.9587 23.371V31.96H87.9877C88.3937 31.96 88.6947 32.058 88.8907 32.254C89.1007 32.436 89.2057 32.709 89.2057 33.073C89.2057 33.437 89.1007 33.717 88.8907 33.913C88.6947 34.095 88.3937 34.186 87.9877 34.186H86.9587V35.824C86.9587 36.258 86.8397 36.594 86.6017 36.832C86.3637 37.056 86.0347 37.168 85.6147 37.168ZM84.2707 31.96V25.408H84.8797L79.9237 32.674V31.96H84.2707ZM91.8645 32.422C91.5565 32.422 91.2975 32.324 91.0875 32.128C90.8915 31.918 90.7935 31.666 90.7935 31.372C90.7935 31.064 90.8915 30.812 91.0875 30.616C91.2975 30.42 91.5565 30.322 91.8645 30.322H96.3375C96.6315 30.322 96.8765 30.42 97.0725 30.616C97.2825 30.812 97.3875 31.064 97.3875 31.372C97.3875 31.666 97.2825 31.918 97.0725 32.128C96.8765 32.324 96.6315 32.422 96.3375 32.422H91.8645ZM105.485 37.21C104.267 37.21 103.224 36.923 102.356 36.349C101.502 35.761 100.851 34.921 100.403 33.829C99.955 32.737 99.731 31.414 99.731 29.86C99.731 28.6 99.871 27.487 100.151 26.521C100.445 25.541 100.865 24.715 101.411 24.043C101.957 23.371 102.622 22.86 103.406 22.51C104.204 22.16 105.1 21.985 106.094 21.985C106.71 21.985 107.333 22.083 107.963 22.279C108.607 22.461 109.209 22.741 109.769 23.119C109.993 23.259 110.14 23.441 110.21 23.665C110.28 23.889 110.287 24.113 110.231 24.337C110.189 24.547 110.091 24.736 109.937 24.904C109.797 25.058 109.615 25.156 109.391 25.198C109.167 25.226 108.922 25.163 108.656 25.009C108.18 24.729 107.732 24.533 107.312 24.421C106.892 24.309 106.472 24.253 106.052 24.253C105.24 24.253 104.554 24.442 103.994 24.82C103.434 25.198 103.007 25.765 102.713 26.521C102.433 27.277 102.293 28.222 102.293 29.356V30.931H102.041C102.153 30.217 102.384 29.608 102.734 29.104C103.098 28.586 103.56 28.194 104.12 27.928C104.68 27.648 105.303 27.508 105.989 27.508C106.843 27.508 107.599 27.711 108.257 28.117C108.915 28.523 109.433 29.083 109.811 29.797C110.189 30.511 110.378 31.33 110.378 32.254C110.378 33.206 110.168 34.06 109.748 34.816C109.342 35.558 108.768 36.146 108.026 36.58C107.298 37 106.451 37.21 105.485 37.21ZM105.338 35.068C105.842 35.068 106.283 34.956 106.661 34.732C107.053 34.508 107.354 34.193 107.564 33.787C107.774 33.367 107.879 32.891 107.879 32.359C107.879 31.813 107.774 31.337 107.564 30.931C107.354 30.525 107.053 30.21 106.661 29.986C106.283 29.748 105.842 29.629 105.338 29.629C104.834 29.629 104.393 29.748 104.015 29.986C103.637 30.21 103.336 30.525 103.112 30.931C102.902 31.337 102.797 31.813 102.797 32.359C102.797 32.891 102.902 33.367 103.112 33.787C103.336 34.193 103.637 34.508 104.015 34.732C104.393 34.956 104.834 35.068 105.338 35.068ZM119.746 40.948C119.326 40.948 119.004 40.836 118.78 40.612C118.556 40.388 118.444 40.059 118.444 39.625V27.886C118.444 27.452 118.556 27.123 118.78 26.899C119.004 26.675 119.319 26.563 119.725 26.563C120.145 26.563 120.467 26.675 120.691 26.899C120.915 27.123 121.027 27.452 121.027 27.886V29.524L120.796 28.894C121.006 28.18 121.433 27.606 122.077 27.172C122.735 26.738 123.498 26.521 124.366 26.521C125.262 26.521 126.046 26.738 126.718 27.172C127.404 27.606 127.936 28.222 128.314 29.02C128.692 29.804 128.881 30.749 128.881 31.855C128.881 32.947 128.692 33.899 128.314 34.711C127.936 35.509 127.411 36.125 126.739 36.559C126.067 36.993 125.276 37.21 124.366 37.21C123.512 37.21 122.763 37 122.119 36.58C121.475 36.146 121.041 35.586 120.817 34.9H121.069V39.625C121.069 40.059 120.95 40.388 120.712 40.612C120.488 40.836 120.166 40.948 119.746 40.948ZM123.631 35.215C124.149 35.215 124.604 35.089 124.996 34.837C125.388 34.585 125.689 34.214 125.899 33.724C126.123 33.22 126.235 32.597 126.235 31.855C126.235 30.735 125.997 29.902 125.521 29.356C125.045 28.796 124.415 28.516 123.631 28.516C123.113 28.516 122.658 28.642 122.266 28.894C121.874 29.132 121.566 29.503 121.342 30.007C121.132 30.497 121.027 31.113 121.027 31.855C121.027 32.961 121.265 33.801 121.741 34.375C122.217 34.935 122.847 35.215 123.631 35.215ZM136.026 37.21C134.962 37.21 134.038 36.993 133.254 36.559C132.47 36.125 131.861 35.509 131.427 34.711C130.993 33.899 130.776 32.947 130.776 31.855C130.776 31.029 130.895 30.294 131.133 29.65C131.385 28.992 131.742 28.432 132.204 27.97C132.666 27.494 133.219 27.137 133.863 26.899C134.507 26.647 135.228 26.521 136.026 26.521C137.09 26.521 138.014 26.738 138.798 27.172C139.582 27.606 140.191 28.222 140.625 29.02C141.059 29.818 141.276 30.763 141.276 31.855C141.276 32.681 141.15 33.423 140.898 34.081C140.66 34.739 140.31 35.306 139.848 35.782C139.386 36.244 138.833 36.601 138.189 36.853C137.545 37.091 136.824 37.21 136.026 37.21ZM136.026 35.215C136.544 35.215 136.999 35.089 137.391 34.837C137.783 34.585 138.084 34.214 138.294 33.724C138.518 33.22 138.63 32.597 138.63 31.855C138.63 30.735 138.392 29.902 137.916 29.356C137.44 28.796 136.81 28.516 136.026 28.516C135.508 28.516 135.053 28.642 134.661 28.894C134.269 29.132 133.961 29.503 133.737 30.007C133.527 30.497 133.422 31.113 133.422 31.855C133.422 32.961 133.66 33.801 134.136 34.375C134.612 34.935 135.242 35.215 136.026 35.215ZM145.032 37.168C144.612 37.168 144.283 37.056 144.045 36.832C143.821 36.594 143.709 36.258 143.709 35.824V27.928C143.709 27.494 143.821 27.165 144.045 26.941C144.283 26.703 144.612 26.584 145.032 26.584C145.452 26.584 145.774 26.703 145.998 26.941C146.222 27.165 146.334 27.494 146.334 27.928V30.721H147.825L150.45 27.193C150.646 26.927 150.87 26.759 151.122 26.689C151.374 26.605 151.612 26.598 151.836 26.668C152.074 26.738 152.263 26.864 152.403 27.046C152.557 27.228 152.634 27.445 152.634 27.697C152.648 27.935 152.557 28.187 152.361 28.453L149.862 31.876L149.295 31.036C149.673 31.078 150.009 31.183 150.303 31.351C150.611 31.519 150.891 31.757 151.143 32.065C151.409 32.359 151.668 32.73 151.92 33.178L153.159 35.383C153.327 35.677 153.383 35.95 153.327 36.202C153.285 36.44 153.166 36.643 152.97 36.811C152.788 36.979 152.571 37.084 152.319 37.126C152.067 37.168 151.815 37.133 151.563 37.021C151.325 36.923 151.122 36.727 150.954 36.433L149.547 33.976C149.365 33.654 149.183 33.409 149.001 33.241C148.833 33.059 148.637 32.933 148.413 32.863C148.203 32.793 147.944 32.758 147.636 32.758H146.334V35.824C146.334 36.258 146.222 36.594 145.998 36.832C145.774 37.056 145.452 37.168 145.032 37.168ZM156.763 37.147C156.343 37.147 156.021 37.021 155.797 36.769C155.573 36.517 155.461 36.167 155.461 35.719V28.012C155.461 27.55 155.573 27.2 155.797 26.962C156.021 26.71 156.343 26.584 156.763 26.584C157.183 26.584 157.505 26.71 157.729 26.962C157.967 27.2 158.086 27.55 158.086 28.012V35.719C158.086 36.167 157.974 36.517 157.75 36.769C157.526 37.021 157.197 37.147 156.763 37.147ZM156.763 24.631C156.273 24.631 155.888 24.512 155.608 24.274C155.342 24.022 155.209 23.679 155.209 23.245C155.209 22.797 155.342 22.454 155.608 22.216C155.888 21.978 156.273 21.859 156.763 21.859C157.267 21.859 157.652 21.978 157.918 22.216C158.184 22.454 158.317 22.797 158.317 23.245C158.317 23.679 158.184 24.022 157.918 24.274C157.652 24.512 157.267 24.631 156.763 24.631ZM162.381 37C161.961 37 161.639 36.888 161.415 36.664C161.191 36.44 161.079 36.118 161.079 35.698V28.033C161.079 27.613 161.191 27.291 161.415 27.067C161.639 26.843 161.961 26.731 162.381 26.731H166.623C167.505 26.731 168.219 26.836 168.765 27.046C169.325 27.256 169.731 27.564 169.983 27.97C170.235 28.362 170.361 28.845 170.361 29.419C170.361 30.063 170.137 30.609 169.689 31.057C169.255 31.491 168.674 31.757 167.946 31.855V31.561C168.856 31.617 169.542 31.876 170.004 32.338C170.48 32.8 170.718 33.395 170.718 34.123C170.718 35.005 170.382 35.705 169.71 36.223C169.038 36.741 168.065 37 166.791 37H162.381ZM163.515 35.383H166.56C167.134 35.383 167.568 35.264 167.862 35.026C168.17 34.788 168.324 34.438 168.324 33.976C168.324 33.514 168.17 33.164 167.862 32.926C167.568 32.688 167.134 32.569 166.56 32.569H163.515V35.383ZM163.515 30.952H166.371C166.875 30.952 167.267 30.84 167.547 30.616C167.827 30.378 167.967 30.049 167.967 29.629C167.967 29.209 167.827 28.894 167.547 28.684C167.267 28.46 166.875 28.348 166.371 28.348H163.515V30.952Z" fill="white"/>
</g>
<defs>
<clipPath id="clip0_169_262">
<rect width="248.812" height="106" fill="white"/>
</clipPath>
</defs>
</svg>
