<svg width="249" height="106" viewBox="0 0 249 106" fill="none" xmlns="http://www.w3.org/2000/svg">
<g clip-path="url(#clip0_89_571)">
<path fill-rule="evenodd" clip-rule="evenodd" d="M245.638 103.154C240.281 85.2007 211.125 98.8987 192.386 99.2081C177.347 99.4604 170.246 88.5943 178.336 77.7616L189.543 62.7595C194.36 56.315 213.012 42.1649 211.459 46.358C205.352 62.8927 249.963 60.8556 245.638 103.154Z" fill="#FF8C9A"/>
<path d="M242.905 103.958C239.904 93.8108 225.591 96.6189 211.435 99.3842L210.379 99.5889V93.7632C222.91 91.312 235.521 88.8513 242.933 94.1868C241.5 76.9858 229.763 69.5323 220.697 63.7828C216.458 61.0936 212.697 58.7091 210.379 55.9247V42.8074C212.167 42.4076 213.49 42.9788 214.202 44.7112C214.528 45.5543 214.516 46.4897 214.169 47.3242C212.501 51.8315 217.404 54.9395 223.779 58.9804C235.512 66.4196 251.258 76.4051 248.506 103.42C248.431 104.071 248.134 104.676 247.664 105.135C247.194 105.593 246.58 105.877 245.926 105.938C245.271 106 244.615 105.835 244.067 105.472C243.52 105.109 243.115 104.569 242.919 103.944L242.905 103.958ZM210.379 99.5889C204.167 100.807 197.954 101.969 192.449 102.054C186.417 102.154 181.457 100.626 177.964 98.0277C176.203 96.7446 174.749 95.0901 173.705 93.1825C172.689 91.2891 172.143 89.1803 172.114 87.0332C172.057 83.5301 173.299 79.7606 176.057 76.0862L187.263 61.0841C190.561 56.672 199.856 48.9282 205.533 45.2443C206.641 44.496 207.808 43.8386 209.022 43.2786C209.459 43.0786 209.913 42.9193 210.379 42.8027V55.9295C209.023 54.3944 208.186 52.4725 207.99 50.437C202.68 54.0066 194.699 60.67 191.875 64.4539L180.645 79.4845C178.676 82.1213 177.777 84.6867 177.82 86.9665C177.837 88.2096 178.154 89.4305 178.742 90.5267C179.386 91.6906 180.281 92.6983 181.361 93.4776C183.899 95.3529 187.65 96.4666 192.353 96.3905C197.61 96.3 203.951 95.0578 210.331 93.806H210.374L210.379 99.5889Z" fill="#D4F1F5"/>
<path fill-rule="evenodd" clip-rule="evenodd" d="M178.351 77.7616L205.873 40.9321L223.827 51.5079L204.157 84.6344C197.199 96.3333 182.723 71.9121 178.351 77.7616Z" fill="#FF8C9A"/>
<path d="M201.911 41.4557L203.584 39.2235C204.005 38.6593 204.622 38.2701 205.314 38.1304C206.006 37.9907 206.726 38.1105 207.335 38.4667L225.285 49.0234C225.938 49.4089 226.411 50.0369 226.6 50.7695C226.789 51.5021 226.679 52.2794 226.293 52.931L206.623 86.0527C205.189 88.4325 203.617 89.8032 201.911 90.4267V82.8162L219.908 52.5121L206.633 44.6779L201.911 50.9986V41.4557ZM176.057 76.0672L201.911 41.4557V50.9986L183.913 75.0915C184.884 75.6433 185.818 76.257 186.709 76.9286C187.717 77.6759 188.75 78.5136 189.82 79.3751C191.669 80.9347 193.624 82.3659 195.67 83.6587C198.059 85.0532 200.272 85.5387 201.691 83.1494L201.911 82.7829V90.4315C199.091 91.4596 195.947 90.4315 192.759 88.5753C190.466 87.1331 188.278 85.5315 186.212 83.7824C185.199 82.9638 184.214 82.1689 183.302 81.4931C181.758 80.3508 180.678 79.4084 180.649 79.4512L176.057 76.0672Z" fill="#D4F1F5"/>
<path fill-rule="evenodd" clip-rule="evenodd" d="M3.16367 103.154C8.51609 85.196 37.6773 98.8987 56.3917 99.2081C71.431 99.4604 78.5326 88.5943 70.4418 77.7616L59.259 62.7595C54.4371 56.315 35.7848 42.1649 37.3427 46.358C43.4598 62.8927 -1.15173 60.8556 3.16367 103.154Z" fill="#FF8C9A"/>
<path d="M38.4324 93.7632H38.4754C44.8553 95.0149 51.2113 96.2572 56.4586 96.3476C61.1611 96.4238 64.9126 95.31 67.4502 93.4348C68.531 92.6555 69.4253 91.6478 70.0691 90.4838C70.658 89.3877 70.9743 88.1668 70.9914 86.9237C71.0296 84.6439 70.1408 82.0785 68.1671 79.4417L56.9604 64.4396C54.1408 60.6319 46.1552 53.9686 40.8458 50.4227C40.649 52.4582 39.8129 54.3802 38.4563 55.9152V42.8074C38.9225 42.9241 39.3768 43.0834 39.8135 43.2834C41.0197 43.8347 42.1799 44.4808 43.283 45.2157C48.9557 48.8996 58.2555 56.6387 61.5482 61.0555L72.7549 76.0576C75.5123 79.7511 76.7596 83.5206 76.6975 87.0046C76.6712 89.152 76.1253 91.2614 75.1061 93.154C74.068 95.0788 72.6136 96.7499 70.848 98.0468C67.3546 100.636 62.3941 102.173 56.3678 102.073C50.8338 101.983 44.6594 100.826 38.4324 99.6079V93.7632ZM5.87815 94.1868C13.2903 88.8513 25.9068 91.331 38.4324 93.7632V99.5794L37.3762 99.3747C23.221 96.6189 8.93191 93.8108 5.90683 103.958C5.71341 104.586 5.30842 105.129 4.76015 105.494C4.21188 105.86 3.55387 106.026 2.89707 105.964C2.24026 105.903 1.62484 105.617 1.15456 105.157C0.684286 104.696 0.387925 104.088 0.31545 103.435C-2.43723 76.4194 13.3094 66.4338 25.0465 59.0184C31.4169 54.9823 36.3201 51.8791 34.6522 47.3623C34.3036 46.5245 34.2933 45.5849 34.6236 44.7398C35.3261 42.993 36.6451 42.4219 38.4467 42.836V55.9628C36.1289 58.7472 32.3727 61.1317 28.129 63.8208C19.049 69.5418 7.2975 76.9953 5.87815 94.1963V94.1868Z" fill="#D4F1F5"/>
<path fill-rule="evenodd" clip-rule="evenodd" d="M70.4609 77.7616L42.9389 40.9321L24.9844 51.4936L44.6546 84.6201C51.6127 96.3333 66.0882 71.9121 70.4609 77.7616Z" fill="#FF8C9A"/>
<path d="M64.9031 75.0915L46.9055 50.9986V41.4557L72.7549 76.0672L68.1623 79.4845C68.1337 79.4417 67.0536 80.3841 65.51 81.5264C64.5972 82.2022 63.5984 82.9971 62.5996 83.8157C60.534 85.5637 58.3478 87.1652 56.0572 88.6086C52.8649 90.4886 49.7251 91.4929 46.9055 90.4648V82.8162L47.1206 83.1827C48.5543 85.5625 50.7717 85.0865 53.1421 83.692C55.1889 82.3981 57.1448 80.967 58.9963 79.4084C60.062 78.5469 61.099 77.7092 62.1026 76.962C62.9945 76.2788 63.93 75.654 64.9031 75.0915ZM46.9055 50.9986L42.1839 44.6779L28.908 52.4979L46.9055 82.8162V90.4315C45.1947 89.808 43.6033 88.4372 42.1935 86.0575L22.5233 52.9453C22.33 52.622 22.2028 52.264 22.1489 51.8917C22.095 51.5193 22.1154 51.14 22.2091 50.7756C22.3028 50.4112 22.4679 50.0688 22.6949 49.7681C22.9218 49.4674 23.2062 49.2143 23.5317 49.0234L41.4814 38.4667C42.0901 38.1119 42.8087 37.9929 43.4999 38.1325C44.1911 38.2721 44.8064 38.6605 45.2281 39.2235L46.9008 41.4557L46.9055 50.9986Z" fill="#D4F1F5"/>
<path fill-rule="evenodd" clip-rule="evenodd" d="M44.6547 84.6201L18.0741 39.8803C7.46483 21.9891 64.4778 2.18463 124.406 2.85572C184.334 2.18463 241.337 21.9891 230.738 39.8565L204.157 84.6201C214.03 65.0774 158.279 52.8643 123.799 52.8548C89.3188 52.8453 31.3644 62.2359 44.6547 84.6201Z" fill="#FF8C9A"/>
<path d="M124.406 1.47894e-06C153.079 -0.323648 181.113 3.99803 201.567 10.5615C211.798 13.8455 220.205 17.7008 225.939 21.8844C232.319 26.5202 235.583 31.6701 234.771 37.0293C234.532 38.5441 234.001 39.9987 233.208 41.3129L206.628 86.0527C206.228 86.659 205.612 87.0914 204.905 87.262C204.197 87.4326 203.451 87.3287 202.817 86.9715C202.184 86.6142 201.71 86.0303 201.493 85.3381C201.276 84.646 201.331 83.8976 201.648 83.2446C202.017 82.519 202.268 81.7399 202.394 80.9362C202.871 77.6045 200.372 74.3775 195.951 71.4171C190.867 67.9997 183.45 65.0631 174.924 62.6738C159.087 58.2331 139.694 55.7677 124.391 55.6963V49.9848C140.162 50.0515 160.171 52.5931 176.482 57.1622C185.562 59.7086 193.543 62.8737 199.149 66.6813C202.675 69.0611 205.313 71.6741 206.795 74.5536L228.267 38.381C228.68 37.7055 228.959 36.9575 229.089 36.1774C229.567 33.1313 227.148 29.8043 222.565 26.4726C217.337 22.665 209.485 19.081 199.808 15.9778C179.866 9.58098 152.496 5.36402 124.42 5.68291H124.396L124.406 1.47894e-06ZM42.2077 86.048L15.6224 41.3082C14.8292 39.9939 14.2986 38.5394 14.0597 37.0246C13.2329 31.6891 16.497 26.5393 22.8769 21.8939C28.6116 17.7246 37.013 13.8551 47.2495 10.571C67.6987 4.01706 95.732 -0.30461 124.406 1.47894e-06V5.71147H124.382C96.3246 5.39258 68.946 9.60954 48.9939 16.0064C39.3165 19.1048 31.4646 22.6983 26.2365 26.4964C21.6535 29.8281 19.2544 33.1598 19.7132 36.2012C19.8452 36.9829 20.1293 37.7315 20.5495 38.4048L41.056 72.9402C42.3224 70.2796 44.5351 67.8807 47.5028 65.7247C52.4538 62.1407 59.5936 59.2279 67.8277 56.9385C84.9411 52.179 107.096 50.0039 123.808 50.0134H124.415V55.7248H123.808C107.526 55.7248 85.9686 57.8333 69.3283 62.4501C61.682 64.5729 55.1874 67.2097 50.8433 70.3462C47.0966 73.0639 45.1086 76.1338 45.6677 79.5274C45.9174 80.8258 46.4032 82.0678 47.1014 83.1922L42.2077 86.048Z" fill="#D4F1F5"/>
<path d="M80.2177 37C79.8537 37 79.5667 36.902 79.3567 36.706C79.1607 36.496 79.0627 36.216 79.0627 35.866C79.0627 35.502 79.1607 35.229 79.3567 35.047C79.5667 34.865 79.8537 34.774 80.2177 34.774H82.5697V24.463H83.8717L80.7847 26.332C80.5187 26.486 80.2667 26.549 80.0287 26.521C79.8047 26.479 79.6087 26.381 79.4407 26.227C79.2867 26.059 79.1817 25.863 79.1257 25.639C79.0697 25.415 79.0837 25.191 79.1677 24.967C79.2657 24.729 79.4477 24.533 79.7137 24.379L82.6117 22.636C82.8917 22.468 83.1717 22.328 83.4517 22.216C83.7317 22.09 83.9907 22.027 84.2287 22.027C84.5227 22.027 84.7677 22.111 84.9637 22.279C85.1597 22.433 85.2577 22.692 85.2577 23.056V34.774H87.3997C87.7637 34.774 88.0437 34.865 88.2397 35.047C88.4497 35.229 88.5547 35.502 88.5547 35.866C88.5547 36.23 88.4497 36.51 88.2397 36.706C88.0437 36.902 87.7637 37 87.3997 37H80.2177ZM91.8644 32.422C91.5564 32.422 91.2974 32.324 91.0874 32.128C90.8914 31.918 90.7934 31.666 90.7934 31.372C90.7934 31.064 90.8914 30.812 91.0874 30.616C91.2974 30.42 91.5564 30.322 91.8644 30.322H96.3374C96.6314 30.322 96.8764 30.42 97.0724 30.616C97.2824 30.812 97.3874 31.064 97.3874 31.372C97.3874 31.666 97.2824 31.918 97.0724 32.128C96.8764 32.324 96.6314 32.422 96.3374 32.422H91.8644ZM104.645 37.21C103.889 37.21 103.105 37.112 102.293 36.916C101.481 36.72 100.774 36.426 100.172 36.034C99.8919 35.852 99.7029 35.642 99.6049 35.404C99.5069 35.166 99.4789 34.942 99.5209 34.732C99.5769 34.508 99.6819 34.319 99.8359 34.165C100.004 34.011 100.207 33.92 100.445 33.892C100.697 33.864 100.97 33.927 101.264 34.081C101.838 34.389 102.391 34.613 102.923 34.753C103.455 34.879 104.001 34.942 104.561 34.942C105.177 34.942 105.695 34.858 106.115 34.69C106.535 34.522 106.85 34.27 107.06 33.934C107.284 33.598 107.396 33.192 107.396 32.716C107.396 32.016 107.158 31.498 106.682 31.162C106.22 30.812 105.541 30.637 104.645 30.637H103.301C102.909 30.637 102.608 30.539 102.398 30.343C102.202 30.147 102.104 29.874 102.104 29.524C102.104 29.174 102.202 28.901 102.398 28.705C102.608 28.509 102.909 28.411 103.301 28.411H104.393C104.925 28.411 105.38 28.327 105.758 28.159C106.136 27.977 106.43 27.725 106.64 27.403C106.85 27.081 106.955 26.689 106.955 26.227C106.955 25.583 106.738 25.093 106.304 24.757C105.884 24.421 105.268 24.253 104.456 24.253C103.938 24.253 103.448 24.316 102.986 24.442C102.538 24.554 102.041 24.771 101.495 25.093C101.243 25.247 100.998 25.31 100.76 25.282C100.536 25.254 100.347 25.163 100.193 25.009C100.039 24.855 99.9339 24.673 99.8779 24.463C99.8219 24.239 99.8359 24.015 99.9199 23.791C100.004 23.553 100.179 23.35 100.445 23.182C101.047 22.79 101.712 22.496 102.44 22.3C103.168 22.09 103.917 21.985 104.687 21.985C105.709 21.985 106.584 22.146 107.312 22.468C108.04 22.776 108.593 23.224 108.971 23.812C109.363 24.386 109.559 25.086 109.559 25.912C109.559 26.5 109.447 27.039 109.223 27.529C108.999 28.005 108.684 28.411 108.278 28.747C107.872 29.083 107.382 29.321 106.808 29.461V29.209C107.816 29.377 108.6 29.797 109.16 30.469C109.72 31.127 110 31.953 110 32.947C110 33.815 109.783 34.571 109.349 35.215C108.915 35.859 108.299 36.356 107.501 36.706C106.703 37.042 105.751 37.21 104.645 37.21ZM119.746 40.948C119.326 40.948 119.004 40.836 118.78 40.612C118.556 40.388 118.444 40.059 118.444 39.625V27.886C118.444 27.452 118.556 27.123 118.78 26.899C119.004 26.675 119.319 26.563 119.725 26.563C120.145 26.563 120.467 26.675 120.691 26.899C120.915 27.123 121.027 27.452 121.027 27.886V29.524L120.796 28.894C121.006 28.18 121.433 27.606 122.077 27.172C122.735 26.738 123.498 26.521 124.366 26.521C125.262 26.521 126.046 26.738 126.718 27.172C127.404 27.606 127.936 28.222 128.314 29.02C128.692 29.804 128.881 30.749 128.881 31.855C128.881 32.947 128.692 33.899 128.314 34.711C127.936 35.509 127.411 36.125 126.739 36.559C126.067 36.993 125.276 37.21 124.366 37.21C123.512 37.21 122.763 37 122.119 36.58C121.475 36.146 121.041 35.586 120.817 34.9H121.069V39.625C121.069 40.059 120.95 40.388 120.712 40.612C120.488 40.836 120.166 40.948 119.746 40.948ZM123.631 35.215C124.149 35.215 124.604 35.089 124.996 34.837C125.388 34.585 125.689 34.214 125.899 33.724C126.123 33.22 126.235 32.597 126.235 31.855C126.235 30.735 125.997 29.902 125.521 29.356C125.045 28.796 124.415 28.516 123.631 28.516C123.113 28.516 122.658 28.642 122.266 28.894C121.874 29.132 121.566 29.503 121.342 30.007C121.132 30.497 121.027 31.113 121.027 31.855C121.027 32.961 121.265 33.801 121.741 34.375C122.217 34.935 122.847 35.215 123.631 35.215ZM136.026 37.21C134.962 37.21 134.038 36.993 133.254 36.559C132.47 36.125 131.861 35.509 131.427 34.711C130.993 33.899 130.776 32.947 130.776 31.855C130.776 31.029 130.895 30.294 131.133 29.65C131.385 28.992 131.742 28.432 132.204 27.97C132.666 27.494 133.219 27.137 133.863 26.899C134.507 26.647 135.228 26.521 136.026 26.521C137.09 26.521 138.014 26.738 138.798 27.172C139.582 27.606 140.191 28.222 140.625 29.02C141.059 29.818 141.276 30.763 141.276 31.855C141.276 32.681 141.15 33.423 140.898 34.081C140.66 34.739 140.31 35.306 139.848 35.782C139.386 36.244 138.833 36.601 138.189 36.853C137.545 37.091 136.824 37.21 136.026 37.21ZM136.026 35.215C136.544 35.215 136.999 35.089 137.391 34.837C137.783 34.585 138.084 34.214 138.294 33.724C138.518 33.22 138.63 32.597 138.63 31.855C138.63 30.735 138.392 29.902 137.916 29.356C137.44 28.796 136.81 28.516 136.026 28.516C135.508 28.516 135.053 28.642 134.661 28.894C134.269 29.132 133.961 29.503 133.737 30.007C133.527 30.497 133.422 31.113 133.422 31.855C133.422 32.961 133.66 33.801 134.136 34.375C134.612 34.935 135.242 35.215 136.026 35.215ZM145.032 37.168C144.612 37.168 144.283 37.056 144.045 36.832C143.821 36.594 143.709 36.258 143.709 35.824V27.928C143.709 27.494 143.821 27.165 144.045 26.941C144.283 26.703 144.612 26.584 145.032 26.584C145.452 26.584 145.774 26.703 145.998 26.941C146.222 27.165 146.334 27.494 146.334 27.928V30.721H147.825L150.45 27.193C150.646 26.927 150.87 26.759 151.122 26.689C151.374 26.605 151.612 26.598 151.836 26.668C152.074 26.738 152.263 26.864 152.403 27.046C152.557 27.228 152.634 27.445 152.634 27.697C152.648 27.935 152.557 28.187 152.361 28.453L149.862 31.876L149.295 31.036C149.673 31.078 150.009 31.183 150.303 31.351C150.611 31.519 150.891 31.757 151.143 32.065C151.409 32.359 151.668 32.73 151.92 33.178L153.159 35.383C153.327 35.677 153.383 35.95 153.327 36.202C153.285 36.44 153.166 36.643 152.97 36.811C152.788 36.979 152.571 37.084 152.319 37.126C152.067 37.168 151.815 37.133 151.563 37.021C151.325 36.923 151.122 36.727 150.954 36.433L149.547 33.976C149.365 33.654 149.183 33.409 149.001 33.241C148.833 33.059 148.637 32.933 148.413 32.863C148.203 32.793 147.944 32.758 147.636 32.758H146.334V35.824C146.334 36.258 146.222 36.594 145.998 36.832C145.774 37.056 145.452 37.168 145.032 37.168ZM156.762 37.147C156.342 37.147 156.02 37.021 155.796 36.769C155.572 36.517 155.46 36.167 155.46 35.719V28.012C155.46 27.55 155.572 27.2 155.796 26.962C156.02 26.71 156.342 26.584 156.762 26.584C157.182 26.584 157.504 26.71 157.728 26.962C157.966 27.2 158.085 27.55 158.085 28.012V35.719C158.085 36.167 157.973 36.517 157.749 36.769C157.525 37.021 157.196 37.147 156.762 37.147ZM156.762 24.631C156.272 24.631 155.887 24.512 155.607 24.274C155.341 24.022 155.208 23.679 155.208 23.245C155.208 22.797 155.341 22.454 155.607 22.216C155.887 21.978 156.272 21.859 156.762 21.859C157.266 21.859 157.651 21.978 157.917 22.216C158.183 22.454 158.316 22.797 158.316 23.245C158.316 23.679 158.183 24.022 157.917 24.274C157.651 24.512 157.266 24.631 156.762 24.631ZM162.381 37C161.961 37 161.639 36.888 161.415 36.664C161.191 36.44 161.079 36.118 161.079 35.698V28.033C161.079 27.613 161.191 27.291 161.415 27.067C161.639 26.843 161.961 26.731 162.381 26.731H166.623C167.505 26.731 168.219 26.836 168.765 27.046C169.325 27.256 169.731 27.564 169.983 27.97C170.235 28.362 170.361 28.845 170.361 29.419C170.361 30.063 170.137 30.609 169.689 31.057C169.255 31.491 168.674 31.757 167.946 31.855V31.561C168.856 31.617 169.542 31.876 170.004 32.338C170.48 32.8 170.718 33.395 170.718 34.123C170.718 35.005 170.382 35.705 169.71 36.223C169.038 36.741 168.065 37 166.791 37H162.381ZM163.515 35.383H166.56C167.134 35.383 167.568 35.264 167.862 35.026C168.17 34.788 168.324 34.438 168.324 33.976C168.324 33.514 168.17 33.164 167.862 32.926C167.568 32.688 167.134 32.569 166.56 32.569H163.515V35.383ZM163.515 30.952H166.371C166.875 30.952 167.267 30.84 167.547 30.616C167.827 30.378 167.967 30.049 167.967 29.629C167.967 29.209 167.827 28.894 167.547 28.684C167.267 28.46 166.875 28.348 166.371 28.348H163.515V30.952Z" fill="white"/>
</g>
<defs>
<clipPath id="clip0_89_571">
<rect width="248.812" height="106" fill="white"/>
</clipPath>
</defs>
</svg>
