<?xml version="1.0" encoding="utf-8"?>
<!-- Generator: Adobe Illustrator 25.0.0, SVG Export Plug-In . SVG Version: 6.00 Build 0)  -->
<svg version="1.1" id="o-0" xmlns="http://www.w3.org/2000/svg" xmlns:xlink="http://www.w3.org/1999/xlink" x="0px" y="0px"
	 viewBox="0 0 777.1 772.4" style="enable-background:new 0 0 777.1 772.4;" xml:space="preserve">
<style type="text/css">
	.st0{fill: #FF8C9A;}
	.st1{display:none;fill:none;}
	.st2{fill: #FF8C9A;}
</style>
<g>
	<g id="textblocktransform">
		<g>
			<g transform="matrix(1,0,0,1,131.76336708925555,74.00336708925556)">
				<g>
					<g>
						<path class="st0" d="M447.5,192.4c0-39.6-32.2-71.9-71.9-71.9c-30.6,0-57.8,19.8-67.7,48.2c-34-10.8-69.9-10.8-103.8,0
							c-10-28.3-37.3-48.2-67.8-48.2c-39.6,0-71.9,32.3-71.9,71.9c0,26.6,15.1,50.9,38.1,63.4c-11.8,23.7-18.1,50-18.1,76.3
							c0,94.6,77,171.7,171.7,171.7s171.7-76.9,171.7-171.7c0-26.4-6.1-52.7-17.9-76.3C432.5,243.3,447.5,219,447.5,192.4z
							 M160.1,248.4c0-13.2,10.7-23.9,23.9-23.9c13.2,0,23.9,10.7,23.9,23.9s-10.7,23.9-23.9,23.9
							C170.8,272.3,160.1,261.6,160.1,248.4z M255.9,455.9c-39.7,0-71.9-35.8-71.9-79.8s32.2-79.8,71.9-79.8s71.9,35.8,71.9,79.8
							S295.6,455.9,255.9,455.9z M327.8,272.3c-13.2,0-23.9-10.7-23.9-23.9s10.7-23.9,23.9-23.9c13.2,0,23.9,10.7,23.9,23.9
							S341,272.3,327.8,272.3z"/>
						<path class="st0" d="M271.9,408c-4.4,0-7.9-3.6-7.9-7.9v-17.6c9.3-3.8,16-14.1,16-26.2c0-15.4-10.7-27.9-23.9-27.9
							s-23.9,12.5-23.9,27.9c0,12.2,6.7,22.4,16,26.2v17.6c0,4.4-3.6,7.9-7.9,7.9c-4.4,0-7.9-3.6-7.9-7.9h-16
							c0,13.2,10.8,23.9,23.9,23.9c6.1,0,11.7-2.3,16-6.1c4.3,3.8,9.9,6.1,16,6.1c13.2,0,23.9-10.7,23.9-23.9h-16
							C279.8,404.4,276.3,408,271.9,408z"/>
					</g>
				</g>
			</g>
			<path class="st0" d="M63.3,395.4c0-14.3,11.6-25.7,25.7-25.7s25.7,11.6,25.7,25.7c0,14.3-11.6,25.7-25.7,25.7
				S63.3,409.6,63.3,395.4z M660.4,395.4c0-14.3,11.6-25.7,25.7-25.7c14.3,0,25.7,11.6,25.7,25.7c0,14.3-11.6,25.7-25.7,25.7
				S660.4,409.6,660.4,395.4z"/>
		</g>
	</g>
	<g>
		<path class="st0" d="M116.2,582.2l-22.7-36l10.9-6.9l6.3,10.1l39.7-25l-6.3-10.1l10.9-6.9l22.7,36l-10.9,6.9l-6.3-10.1l-39.7,25
			l6.3,10.1L116.2,582.2z"/>
		<path class="st0" d="M223.1,609.4l-24.7-22.9l-39.8,43.1l-13.8-12.7l49.3-53.4l38.5,35.6L223.1,609.4z"/>
		<path class="st0" d="M294.2,657.3c-1.4,2.9-3.3,5.5-5.7,7.9c-2.4,2.3-5,3.9-7.8,4.9c-3.9,1.3-7.7,1.9-11.6,1.6
			c-3.8-0.2-8.2-1.5-12.9-3.8l-10.5-5.1l-10.3,21.3l-16.9-8.1l31.6-65.5l27.8,13.4c4.2,2,7.5,4.1,10,6.2s4.5,4.4,6,6.9
			c1.8,3,2.8,6.2,2.8,9.6C296.9,649.9,296,653.5,294.2,657.3z M276.5,649.2c0.9-1.8,1.2-3.7,0.8-5.5c-0.4-1.8-1.1-3.3-2.1-4.5
			c-1.4-1.6-2.9-2.8-4.6-3.6c-1.6-0.9-3.8-2-6.6-3.3l-2.9-1.4l-9.4,19.6l4.8,2.3c2.9,1.4,5.3,2.4,7.4,2.9c2,0.5,3.9,0.6,5.7,0.2
			c1.5-0.4,2.9-1.2,4-2.2C274.6,652.6,275.6,651.1,276.5,649.2z"/>
		<path class="st0" d="M382.8,723.1l-19.2-2.5l-3.1-15.2l-26.7-3.4l-6.9,13.9l-18.7-2.4l35.9-68.7l21.4,2.8L382.8,723.1z
			 M357.6,691.6l-5.5-27l-12.2,24.7L357.6,691.6z"/>
		<path class="st0" d="M522.8,697l-94.5,25.3l-18.8-70.2l18.1-4.9l15.3,56.9l20.1-5.4l-15.3-56.9l18.1-4.9l15.3,56.9l20.1-5.4
			l-15.3-56.9l18.1-4.9L522.8,697z"/>
		<path class="st0" d="M602.6,597.6c7.2,9.1,10.3,18.4,9.3,27.9c-1,9.5-6.1,17.8-15.3,25.1c-9.2,7.2-18.5,10.2-27.9,9
			c-9.4-1.2-17.7-6.4-24.9-15.5c-7.2-9.2-10.3-18.5-9.3-27.9c1-9.4,6.1-17.8,15.3-25c9.2-7.2,18.4-10.2,27.9-9
			C587.1,583.2,595.4,588.4,602.6,597.6z M594.5,627.4c0.1-2.9-0.5-5.8-1.7-8.7c-1.2-2.9-3-6-5.5-9.2c-2.7-3.4-5.4-6-8.1-7.8
			s-5.3-2.9-7.7-3.4c-2.5-0.5-4.9-0.4-7.1,0.2c-2.2,0.7-4.3,1.7-6.1,3.2c-1.9,1.5-3.4,3.2-4.5,5.2c-1.1,2-1.8,4.3-1.9,6.9
			c-0.2,2.4,0.4,5.2,1.5,8.4c1.2,3.2,3.1,6.4,5.7,9.7c2.7,3.4,5.4,6,8,7.8c2.7,1.8,5.2,2.9,7.7,3.4c2.5,0.5,4.8,0.4,7.1-0.2
			c2.3-0.6,4.4-1.7,6.3-3.2c1.9-1.5,3.4-3.3,4.5-5.4C593.8,632.3,594.4,630,594.5,627.4z"/>
		<path class="st0" d="M692,533.1l-12.3,19.4l-36.3,2.4l-2.5,3.9l24.8,15.7l-10.1,15.8l-61.4-39l10.1-15.8l25,15.9
			c0.8-1.3,1.3-2.5,1.7-3.5c0.3-1,0.5-2,0.4-3c-0.1-1.1-0.4-2.4-0.9-3.9c-0.5-1.5-1.3-3.3-2.3-5.2c-0.6-1.2-1.4-2.6-2.3-4.2
			c-0.9-1.6-1.6-2.9-2.2-4c-2.4-4.5-3.6-8.4-3.7-11.7c-0.1-3.3,1.4-7.4,4.4-12.1c0.9-1.4,1.7-2.6,2.4-3.7c0.7-1.1,1.3-1.9,1.6-2.4
			l13.3,8.5l-2.9,4.6c-1.4,2.3-2,4.4-1.6,6.4c0.4,2,1.5,4.7,3.5,8c1.9,3.3,3.2,5.9,3.7,7.6c0.6,1.7,0.8,3.2,0.7,4.4L692,533.1z"/>
	</g>
	<g>
		<path class="st0" d="M281.8,148.2c-4.9,2.3-9.7,3.8-14.5,4.3c-4.8,0.5-9.4,0.1-13.7-1.4c-4.3-1.4-8.3-3.9-12-7.4
			c-3.7-3.5-6.8-8-9.5-13.6c-2.5-5.2-4-10.3-4.4-15.3c-0.5-5,0.1-9.7,1.6-14.1c1.5-4.3,3.9-8.2,7.4-11.8c3.5-3.6,7.7-6.6,12.7-9
			c2.8-1.3,5.3-2.4,7.7-3.1c2.4-0.8,4.6-1.3,6.7-1.7c2.2-0.4,4.3-0.6,6.2-0.7c1.9-0.1,3.6-0.1,5.1-0.1l7.6,15.9l-1.9,0.9
			c-1.2-0.3-2.6-0.6-4.3-1c-1.7-0.4-3.6-0.6-5.6-0.8c-2.1-0.2-4.2-0.1-6.4,0.1c-2.2,0.3-4.4,0.9-6.5,1.9c-2.4,1.1-4.5,2.6-6.3,4.4
			c-1.8,1.8-3.2,4-4.2,6.6c-0.9,2.5-1.3,5.4-1,8.6c0.2,3.3,1.3,6.9,3.2,10.8c2,4.1,4.2,7.3,6.7,9.5c2.5,2.2,5,3.7,7.5,4.4
			c2.6,0.8,5.1,1,7.6,0.6c2.5-0.4,4.9-1.1,7-2.1c2.1-1,3.9-2.3,5.7-3.8c1.7-1.6,3.2-3.3,4.4-5.2c1-1.5,1.9-3.1,2.7-4.6
			c0.8-1.6,1.4-2.9,1.8-4l1.8-0.8l7.5,15.7c-1.3,1.5-2.5,3-3.7,4.3c-1.2,1.4-2.5,2.7-3.9,3.9c-1.9,1.6-3.6,3.1-5.4,4.3
			C287.6,145.2,285.1,146.6,281.8,148.2z"/>
		<path class="st0" d="M388.9,99.8c0.4,3.5,0.1,6.7-1,9.6c-1.1,2.9-2.8,5.4-5,7.5c-2.6,2.5-5.6,4.3-8.9,5.6
			c-3.3,1.3-7.6,2.2-12.8,2.8l-31.5,3.6l-8.3-72.2l28-3.2c5.8-0.7,10.1-1,12.8-0.9c2.7,0.1,5.5,0.6,8.3,1.6c2.9,1.1,5.2,2.7,6.8,4.9
			c1.6,2.2,2.6,4.8,2.9,7.8c0.4,3.5-0.2,6.7-1.7,9.6c-1.5,2.9-3.9,5.3-7.1,7.1l0,0.4c4.8,0.4,8.8,1.9,11.9,4.5
			C386.6,91.3,388.4,95,388.9,99.8z M361.7,72.9c-0.1-1.2-0.6-2.4-1.3-3.5c-0.7-1.1-1.9-1.9-3.5-2.3c-1.4-0.4-3.1-0.5-5.2-0.3
			c-2,0.2-4.9,0.5-8.5,0.9l-1.7,0.2l1.8,15.3l2.9-0.3c2.9-0.3,5.4-0.7,7.5-1c2.1-0.3,3.7-0.8,4.8-1.5c1.6-0.9,2.6-2,3-3.3
			C361.7,75.8,361.8,74.5,361.7,72.9z M369.6,101.8c-0.3-2.3-0.9-4-1.9-5.2c-1-1.1-2.6-1.9-4.8-2.3c-1.5-0.3-3.5-0.3-6.1,0
			s-5.2,0.5-8,0.9l-4.1,0.5l2.1,18l1.4-0.2c5.2-0.6,9-1,11.2-1.3c2.3-0.3,4.3-1,6.1-2c1.8-1,3.1-2.3,3.6-3.7
			S369.8,103.5,369.6,101.8z"/>
		<path class="st0" d="M457.5,132.3l-41.9-7.7l2.3-12.7l11.7,2.2l8.5-46.1l-11.7-2.2l2.3-12.7l41.9,7.7l-2.3,12.7l-11.7-2.2
			l-8.5,46.1l11.7,2.2L457.5,132.3z"/>
		<path class="st0" d="M562.4,114.7l-20.2-10.3l-26.6,52.3l-16.7-8.5l26.6-52.3l-20.2-10.3l6.4-12.5l57.2,29.1L562.4,114.7z"/>
	</g>
</g>
<rect x="-111.7" y="32.7" class="st1" width="998.7" height="707"/>
<path class="st2" d="M388.9,764.7c-51,0-100.5-10-147.1-29.7c-45-19-85.4-46.3-120.1-81c-34.7-34.7-62-75.1-81-120.1
	c-19.7-46.6-29.7-96.1-29.7-147.1s10-100.5,29.7-147.1c19-45,46.3-85.4,81-120.1c34.7-34.7,75.1-62,120.1-81
	c46.6-19.7,96.1-29.7,147.1-29.7s100.5,10,147.1,29.7c45,19,85.4,46.3,120.1,81c34.7,34.7,62,75.1,81,120.1
	c19.7,46.6,29.7,96.1,29.7,147.1s-10,100.5-29.7,147.1c-19,45-46.3,85.4-81,120.1c-34.7,34.7-75.1,62-120.1,81
	C489.4,754.7,439.9,764.7,388.9,764.7z M388.9,28.7c-197.4,0-358,160.6-358,358c0,197.4,160.6,358,358,358
	c197.4,0,358-160.6,358-358C746.9,189.3,586.3,28.7,388.9,28.7z"/>
</svg>
