<svg width="40" height="40" viewBox="0 0 40 40" fill="none" xmlns="http://www.w3.org/2000/svg">
<path d="M40 7.50326C40 3.37073 36.638 0 32.4928 0C29.2978 0 26.4578 2.06627 25.4242 5.03C21.8742 3.90295 18.1258 3.90295 14.5863 5.03C13.5422 2.0767 10.6917 0 7.50718 0C3.37249 0 0 3.37073 0 7.50326C0 10.2792 1.57661 12.815 3.97807 14.1195C2.74602 16.5927 2.08823 19.3373 2.08823 22.0819C2.08823 31.9541 10.1279 40 20.0157 40C29.9034 40 37.9431 31.975 37.9431 22.0819C37.9431 19.3269 37.3062 16.5823 36.0741 14.1195C38.4338 12.815 40 10.2792 40 7.50326ZM9.99217 13.3472C9.99217 11.9697 11.1094 10.8531 12.4876 10.8531C13.8658 10.8531 14.983 11.9697 14.983 13.3472C14.983 14.7248 13.8658 15.8414 12.4876 15.8414C11.1094 15.8414 9.99217 14.7248 9.99217 13.3472ZM19.9948 35.0013C15.8496 35.0013 12.4876 31.2653 12.4876 26.6736C12.4876 22.0819 15.8496 18.3459 19.9948 18.3459C24.1399 18.3459 27.502 22.0819 27.502 26.6736C27.502 31.2653 24.1399 35.0013 19.9948 35.0013ZM27.502 15.8414C26.1237 15.8414 25.0065 14.7248 25.0065 13.3472C25.0065 11.9697 26.1237 10.8531 27.502 10.8531C28.8802 10.8531 29.9974 11.9697 29.9974 13.3472C29.9974 14.7248 28.8802 15.8414 27.502 15.8414Z" fill="#FCDCEA"/>
<path d="M21.6654 30.0026C21.206 30.0026 20.8405 29.6269 20.8405 29.1782V27.3415C21.8115 26.945 22.5111 25.8701 22.5111 24.6074C22.5111 23.0003 21.3939 21.6958 20.0157 21.6958C18.6374 21.6958 17.5202 23.0003 17.5202 24.6074C17.5202 25.8805 18.2198 26.945 19.1908 27.3415V29.1782C19.1908 29.6374 18.8149 30.0026 18.366 30.0026C17.9066 30.0026 17.5411 29.6269 17.5411 29.1782H15.8705C15.8705 30.5557 16.9982 31.6723 18.366 31.6723C19.0029 31.6723 19.5876 31.4323 20.0365 31.0357C20.4855 31.4323 21.0702 31.6723 21.7071 31.6723C23.0854 31.6723 24.2026 30.5557 24.2026 29.1782H22.532C22.4902 29.6269 22.1248 30.0026 21.6654 30.0026Z" fill="#FCDCEA"/>
</svg>
